PathFileType  4	(X/Y/Z) D:/Data/Berkelmans/SUB01/trc/slow_skatebelt
DataRate	CameraRate	NumFrames	NumMarkers	Units	OrigDataRate	OrigDataStartFrame	OrigNumFrames
100.0	100.0	10	31	m	100.0	101	800
Frame#	Time	LCAL			RCAL			C7			LSHO			RTIB2			RFEM2			LFEM2			RTIB3			RFEM1			LSIPS			RTIB1			LTIB2			RFEM3			RSHO			RKNEE_med			LKNEE_lat			RKNEE_lat			LMTP5			RMTP5			RSIAS			RSIPS			LSIAS			LKNEE_med			LANK_lat			LANK_med			RANK_lat			RANK_med			LTIB3			LTIB1			LFEM3			LFEM1			
		X1	Y1	Z1	X2	Y2	Z2	X3	Y3	Z3	X4	Y4	Z4	X5	Y5	Z5	X6	Y6	Z6	X7	Y7	Z7	X8	Y8	Z8	X9	Y9	Z9	X10	Y10	Z10	X11	Y11	Z11	X12	Y12	Z12	X13	Y13	Z13	X14	Y14	Z14	X15	Y15	Z15	X16	Y16	Z16	X17	Y17	Z17	X18	Y18	Z18	X19	Y19	Z19	X20	Y20	Z20	X21	Y21	Z21	X22	Y22	Z22	X23	Y23	Z23	X24	Y24	Z24	X25	Y25	Z25	X26	Y26	Z26	X27	Y27	Z27	X28	Y28	Z28	X29	Y29	Z29	X30	Y30	Z30	X31	Y31	Z31	

101	-1.9900000	-0.2852803	0.0737698	-0.0202178	0.0946661	0.0580753	0.0449242	-0.1700052	1.3775672	-0.0477384	-0.0839224	1.4285707	-0.1821572	0.0781981	0.3200815	0.1407838	0.0302737	0.5681150	0.1602786	-0.1212022	0.6039305	-0.1443260	0.0268884	0.3147612	0.1072259	-0.0440458	0.6449989	0.1751761	-0.1457567	1.0285986	-0.0630433	0.0457060	0.3806668	0.1392326	-0.1796441	0.3430662	-0.1245459	-0.0208102	0.5708017	0.1304532	-0.0937705	1.3953075	0.1874825	0.1111258	0.5239184	0.0429817	-0.0775137	0.4701140	-0.1050111	0.1089802	0.5030189	0.1351032	-0.1278248	0.0413071	-0.0899311	0.2565265	0.0672748	0.1155127	0.0441018	0.9799363	0.1176210	-0.1498097	1.0205518	0.0508301	0.0493873	0.9715337	-0.1052560	-0.0765907	0.4873061	-0.0134979	-0.2242778	0.1067384	-0.0737298	-0.2026995	0.1121534	0.0047798	0.1474555	0.1046345	0.0950005	0.1691669	0.1199972	0.0118604	-0.2205982	0.3678719	-0.0944456	-0.1770959	0.4117995	-0.1242276	-0.1640639	0.6277121	-0.0966842	-0.1498636	0.7044282	-0.1414617
102	-1.9800000	-0.2903296	0.0752348	-0.0203684	0.0909499	0.0585938	0.0456068	-0.1692443	1.3768169	-0.0466497	-0.0841977	1.4277692	-0.1810610	0.0805637	0.3200044	0.1411931	0.0307429	0.5676033	0.1591872	-0.1204885	0.6033130	-0.1433136	0.0282478	0.3146975	0.1078423	-0.0433986	0.6446354	0.1746510	-0.1444744	1.0277933	-0.0618453	0.0474867	0.3802323	0.1397500	-0.1806299	0.3438569	-0.1240224	-0.0201643	0.5708157	0.1289773	-0.0931035	1.3945765	0.1886204	0.1098561	0.5230850	0.0411007	-0.0767694	0.4695113	-0.1046219	0.1100859	0.5024978	0.1340391	-0.1333189	0.0411764	-0.0898511	0.2539260	0.0640723	0.1126802	0.0458658	0.9793990	0.1182058	-0.1483476	1.0197222	0.0519980	0.0505578	0.9709995	-0.1045695	-0.0752076	0.4865755	-0.0128646	-0.2289443	0.1076163	-0.0738691	-0.2072726	0.1128136	0.0047752	0.1457392	0.1038127	0.0946816	0.1657044	0.1186953	0.0113847	-0.2213052	0.3692073	-0.0936611	-0.1769640	0.4124623	-0.1235315	-0.1628286	0.6272043	-0.0952683	-0.1488914	0.7039296	-0.1400163
103	-1.9700000	-0.2952446	0.0768268	-0.0204322	0.0870740	0.0594758	0.0460554	-0.1685227	1.3761515	-0.0454850	-0.0836402	1.4269971	-0.1799101	0.0828973	0.3197341	0.1422918	0.0310066	0.5669202	0.1590965	-0.1194238	0.6030660	-0.1421929	0.0301867	0.3147290	0.1095709	-0.0426970	0.6444175	0.1748160	-0.1431872	1.0270826	-0.0607753	0.0500569	0.3801522	0.1410253	-0.1816183	0.3448376	-0.1233693	-0.0201972	0.5703758	0.1292775	-0.0925059	1.3938831	0.1896541	0.1086218	0.5221835	0.0396210	-0.0756271	0.4688583	-0.1042750	0.1117685	0.5021188	0.1332169	-0.1387911	0.0411220	-0.0897827	0.2506515	0.0608821	0.1113648	0.0475069	0.9790187	0.1189084	-0.1470044	1.0191185	0.0532399	0.0519253	0.9705978	-0.1038561	-0.0733560	0.4859538	-0.0124968	-0.2336327	0.1087592	-0.0740232	-0.2125792	0.1142587	0.0038040	0.1436645	0.1032606	0.0949027	0.1625532	0.1177014	0.0112460	-0.2217538	0.3707792	-0.0927970	-0.1766887	0.4132591	-0.1226229	-0.1614947	0.6268232	-0.0938671	-0.1478682	0.7036471	-0.1386605
104	-1.9600000	-0.2999236	0.0786872	-0.0205747	0.0829912	0.0604627	0.0462117	-0.1678116	1.3753643	-0.0442255	-0.0829577	1.4265676	-0.1787233	0.0850844	0.3193759	0.1441397	0.0313523	0.5665199	0.1590494	-0.1182529	0.6028039	-0.1410210	0.0317179	0.3152171	0.1108219	-0.0415166	0.6444825	0.1757655	-0.1417556	1.0264448	-0.0596355	0.0522967	0.3804010	0.1425441	-0.1821716	0.3458439	-0.1230073	-0.0202454	0.5702040	0.1302437	-0.0917184	1.3931820	0.1908600	0.1073285	0.5212691	0.0390523	-0.0743913	0.4683144	-0.1039778	0.1144734	0.5020456	0.1326682	-0.1440403	0.0411034	-0.0896333	0.2464929	0.0577672	0.1112514	0.0493149	0.9788004	0.1195635	-0.1453706	1.0186106	0.0543569	0.0532639	0.9702520	-0.1031860	-0.0713484	0.4853850	-0.0120294	-0.2379094	0.1100676	-0.0743423	-0.2168020	0.1153441	0.0036981	0.1404699	0.1026528	0.0952580	0.1594834	0.1169906	0.0114957	-0.2218093	0.3722050	-0.0921190	-0.1763543	0.4143222	-0.1219941	-0.1600918	0.6265653	-0.0924202	-0.1466394	0.7033754	-0.1373058
105	-1.9500000	-0.3044776	0.0810131	-0.0207970	0.0787940	0.0614382	0.0463702	-0.1672975	1.3747796	-0.0429727	-0.0830247	1.4261368	-0.1775054	0.0860115	0.3195078	0.1452095	0.0323610	0.5665754	0.1600611	-0.1167415	0.6025362	-0.1398432	0.0323666	0.3160831	0.1123057	-0.0399850	0.6450700	0.1771104	-0.1402510	1.0260500	-0.0586559	0.0537812	0.3808406	0.1439005	-0.1826340	0.3469647	-0.1224778	-0.0199321	0.5702287	0.1319763	-0.0908971	1.3927260	0.1920445	0.1066984	0.5207004	0.0392215	-0.0727562	0.4675693	-0.1039676	0.1172721	0.5021676	0.1321736	-0.1495515	0.0410012	-0.0895130	0.2419167	0.0549046	0.1122113	0.0511583	0.9786451	0.1202511	-0.1438476	1.0183159	0.0554298	0.0549875	0.9701042	-0.1024764	-0.0688570	0.4846688	-0.0116105	-0.2420460	0.1114770	-0.0746224	-0.2208910	0.1166615	0.0034232	0.1368939	0.1021969	0.0957772	0.1505947	0.1174079	0.0137849	-0.2214593	0.3737770	-0.0913254	-0.1754077	0.4151896	-0.1212080	-0.1581859	0.6263004	-0.0909831	-0.1452253	0.7031347	-0.1359489
106	-1.9400000	-0.3089405	0.0839131	-0.0210551	0.0742751	0.0620723	0.0468160	-0.1665132	1.3742491	-0.0416791	-0.0823372	1.4259373	-0.1763138	0.0859214	0.3197655	0.1461566	0.0342279	0.5670218	0.1618175	-0.1147701	0.6022680	-0.1387862	0.0318985	0.3170596	0.1142758	-0.0377205	0.6458251	0.1784852	-0.1386489	1.0257871	-0.0576612	0.0547270	0.3814948	0.1455497	-0.1825511	0.3480822	-0.1220865	-0.0179106	0.5704370	0.1341255	-0.0901041	1.3923785	0.1932128	0.1075204	0.5206939	0.0399235	-0.0704138	0.4671636	-0.1042274	0.1195662	0.5026300	0.1321432	-0.1548772	0.0409210	-0.0893960	0.2372200	0.0523877	0.1128102	0.0528201	0.9786277	0.1210682	-0.1423138	1.0183001	0.0563648	0.0564645	0.9700635	-0.1017825	-0.0660191	0.4839797	-0.0111715	-0.2483781	0.1147499	-0.0758763	-0.2245776	0.1182153	0.0031171	0.1328514	0.1017841	0.0966128	0.1474219	0.1167041	0.0145165	-0.2208778	0.3753962	-0.0907159	-0.1743895	0.4163060	-0.1206658	-0.1561870	0.6258874	-0.0895763	-0.1435790	0.7027116	-0.1346196
107	-1.9300000	-0.3128222	0.0874015	-0.0211914	0.0695876	0.0629027	0.0470897	-0.1655697	1.3737386	-0.0405505	-0.0816307	1.4259067	-0.1751183	0.0851665	0.3197885	0.1474824	0.0376588	0.5678658	0.1641388	-0.1125983	0.6018186	-0.1377966	0.0305319	0.3179692	0.1164183	-0.0346695	0.6463997	0.1805409	-0.1371181	1.0256757	-0.0566712	0.0549325	0.3821128	0.1473985	-0.1817979	0.3492395	-0.1218909	-0.0149505	0.5706219	0.1369540	-0.0891315	1.3921694	0.1944249	0.1092814	0.5210930	0.0412129	-0.0673618	0.4666350	-0.1043119	0.1213135	0.5028536	0.1327455	-0.1600486	0.0409159	-0.0893106	0.2311697	0.0501615	0.1120228	0.0545939	0.9787990	0.1218255	-0.1408362	1.0184664	0.0572822	0.0580668	0.9702001	-0.1010662	-0.0622877	0.4831565	-0.0107478	-0.2518870	0.1168351	-0.0762541	-0.2280269	0.1200610	0.0027467	0.1287998	0.1014818	0.0971300	0.1431527	0.1166288	0.0154575	-0.2195650	0.3771935	-0.0900637	-0.1725858	0.4172816	-0.1200082	-0.1538267	0.6251911	-0.0883611	-0.1415495	0.7021207	-0.1333517
108	-1.9200000	-0.3166139	0.0913751	-0.0215452	0.0646916	0.0632941	0.0475503	-0.1646310	1.3734313	-0.0393856	-0.0808860	1.4260453	-0.1738666	0.0839852	0.3198529	0.1486949	0.0418475	0.5687083	0.1663218	-0.1096854	0.6011441	-0.1369027	0.0288039	0.3186050	0.1185817	-0.0308626	0.6468739	0.1834062	-0.1356173	1.0256711	-0.0556154	0.0545455	0.3825202	0.1490638	-0.1804550	0.3507352	-0.1216612	-0.0113735	0.5707763	0.1402901	-0.0881663	1.3920896	0.1955848	0.1120229	0.5216039	0.0423906	-0.0638109	0.4659817	-0.1043974	0.1223594	0.5028417	0.1335783	-0.1652368	0.0410133	-0.0892392	0.2262208	0.0486495	0.1118448	0.0561954	0.9790528	0.1226142	-0.1393442	1.0187138	0.0583523	0.0594113	0.9704645	-0.1003053	-0.0579622	0.4823892	-0.0105406	-0.2551854	0.1192551	-0.0766543	-0.2310730	0.1222012	0.0022841	0.1245868	0.1012113	0.0974385	0.1390306	0.1163214	0.0158681	-0.2142867	0.3791951	-0.0916931	-0.1699874	0.4184957	-0.1195273	-0.1508931	0.6243254	-0.0874959	-0.1389564	0.7013480	-0.1323624
109	-1.9100000	-0.3199005	0.0963638	-0.0219490	0.0597187	0.0636433	0.0478374	-0.1637695	1.3734930	-0.0382536	-0.0803760	1.4263812	-0.1725993	0.0826061	0.3199110	0.1498834	0.0462444	0.5695420	0.1682903	-0.1060468	0.6002968	-0.1361005	0.0271874	0.3194093	0.1207424	-0.0263675	0.6471183	0.1870427	-0.1342314	1.0257124	-0.0545506	0.0540782	0.3828926	0.1507674	-0.1786766	0.3523532	-0.1213850	-0.0078305	0.5708279	0.1439553	-0.0870390	1.3922687	0.1967552	0.1150641	0.5221249	0.0433640	-0.0593401	0.4654145	-0.1044254	0.1228635	0.5027287	0.1342852	-0.1699374	0.0409688	-0.0892584	0.2212254	0.0479481	0.1117223	0.0576922	0.9795555	0.1235870	-0.1380236	1.0189997	0.0594296	0.0608756	0.9708047	-0.0993921	-0.0528860	0.4813355	-0.0103902	-0.2581100	0.1221913	-0.0771737	-0.2334315	0.1246073	0.0017114	0.1198488	0.1012230	0.0976917	0.1345166	0.1159149	0.0160468	-0.2115262	0.3813898	-0.0910497	-0.1667724	0.4200313	-0.1190795	-0.1473997	0.6231204	-0.0866390	-0.1362958	0.7004738	-0.1314391
110	-1.9000000	-0.3226070	0.1018462	-0.0223959	0.0542968	0.0639126	0.0478422	-0.1628305	1.3736716	-0.0371284	-0.0796978	1.4268951	-0.1714270	0.0810934	0.3201347	0.1510147	0.0502872	0.5698231	0.1698359	-0.1017828	0.5994317	-0.1352040	0.0254818	0.3201072	0.1230303	-0.0222713	0.6470939	0.1906926	-0.1328783	1.0258392	-0.0534296	0.0534295	0.3834918	0.1520738	-0.1760293	0.3542813	-0.1211487	-0.0048623	0.5710215	0.1464312	-0.0859322	1.3925067	0.1979017	0.1171624	0.5225323	0.0440893	-0.0540269	0.4647028	-0.1047597	0.1230218	0.5026719	0.1348281	-0.1748008	0.0412106	-0.0892372	0.2160749	0.0476913	0.1117823	0.0591976	0.9801915	0.1244720	-0.1366112	1.0192973	0.0605918	0.0619948	0.9713634	-0.0983785	-0.0468333	0.4802656	-0.0102119	-0.2599592	0.1253899	-0.0778665	-0.2369767	0.1283257	0.0020617	0.1147767	0.1012145	0.0977530	0.1293884	0.1159556	0.0161377	-0.2081014	0.3837862	-0.0903621	-0.1627004	0.4216260	-0.1186207	-0.1436453	0.6217649	-0.0859405	-0.1332010	0.6990796	-0.1306575
